<?xml version="1.0" encoding="UTF-8" standalone="no"?>
<!DOCTYPE svg PUBLIC "-//W3C//DTD SVG 1.1//EN"
 "http://www.w3.org/Graphics/SVG/1.1/DTD/svg11.dtd">
<!-- Generated by graphviz version 2.46.0 (20210119.1425)
 -->
<!-- Title: dependencies Pages: 1 -->
<svg width="1294pt" height="284pt"
 viewBox="0.00 0.00 1294.00 284.00" xmlns="http://www.w3.org/2000/svg" xmlns:xlink="http://www.w3.org/1999/xlink">
<g id="graph0" class="graph" transform="scale(1 1) rotate(0) translate(4 280)">
<title>dependencies</title>
<polygon fill="white" stroke="transparent" points="-4,4 -4,-280 1290,-280 1290,4 -4,4"/>
<text text-anchor="start" x="622.01" y="-42.4" font-family="sans-serif" font-weight="bold" font-size="14.00">Legend</text>
<polygon fill="#ffffb3" stroke="transparent" points="409,-10 409,-30 429,-30 429,-10 409,-10"/>
<text text-anchor="start" x="432.63" y="-15.4" font-family="sans-serif" font-size="14.00"> &#160;Declarations</text>
<polygon fill="#8dd3c7" stroke="transparent" points="522,-10 522,-30 542,-30 542,-10 522,-10"/>
<text text-anchor="start" x="545.73" y="-15.4" font-family="sans-serif" font-size="14.00"> &#160;Module</text>
<polygon fill="#80b1d3" stroke="transparent" points="608,-10 608,-30 628,-30 628,-10 608,-10"/>
<text text-anchor="start" x="631.78" y="-15.4" font-family="sans-serif" font-size="14.00"> &#160;Bootstrap</text>
<polygon fill="#fdb462" stroke="transparent" points="705,-10 705,-30 725,-30 725,-10 705,-10"/>
<text text-anchor="start" x="728.67" y="-15.4" font-family="sans-serif" font-size="14.00"> &#160;Providers</text>
<polygon fill="#fb8072" stroke="transparent" points="801,-10 801,-30 821,-30 821,-10 801,-10"/>
<text text-anchor="start" x="824.73" y="-15.4" font-family="sans-serif" font-size="14.00"> &#160;Exports</text>
<g id="clust1" class="cluster">
<title>cluster_AppModule</title>
<polygon fill="none" stroke="black" stroke-dasharray="1,5" points="8,-70 8,-268 1278,-268 1278,-70 8,-70"/>
</g>
<g id="clust2" class="cluster">
<title>cluster_AppModule_declarations</title>
<polygon fill="none" stroke="black" points="168,-78 168,-130 1270,-130 1270,-78 168,-78"/>
</g>
<g id="clust11" class="cluster">
<title>cluster_AppModule_bootstrap</title>
<polygon fill="none" stroke="black" points="617,-208 617,-260 741,-260 741,-208 617,-208"/>
</g>
<g id="clust9" class="cluster">
<title>cluster_AppModule_imports</title>
<polygon fill="none" stroke="black" points="16,-78 16,-130 160,-130 160,-78 16,-78"/>
</g>
<!-- AppComponent -->
<g id="node1" class="node">
<title>AppComponent</title>
<polygon fill="#ffffb3" stroke="black" points="1261.94,-122 1156.06,-122 1156.06,-86 1261.94,-86 1261.94,-122"/>
<text text-anchor="middle" x="1209" y="-99.8" font-family="Times,serif" font-size="14.00">AppComponent</text>
</g>
<!-- AppModule -->
<g id="node7" class="node">
<title>AppModule</title>
<polygon fill="#8dd3c7" stroke="black" points="720.66,-187 717.66,-191 696.66,-191 693.66,-187 637.34,-187 637.34,-151 720.66,-151 720.66,-187"/>
<text text-anchor="middle" x="679" y="-164.8" font-family="Times,serif" font-size="14.00">AppModule</text>
</g>
<!-- AppComponent&#45;&gt;AppModule -->
<g id="edge1" class="edge">
<title>AppComponent&#45;&gt;AppModule</title>
<path fill="none" stroke="black" d="M1209,-122.29C1209,-144.21 1209,-178 1209,-178 1209,-178 731.03,-178 731.03,-178"/>
<polygon fill="black" stroke="black" points="731.03,-174.5 721.03,-178 731.03,-181.5 731.03,-174.5"/>
</g>
<!-- AuctionCarouselComponent -->
<g id="node2" class="node">
<title>AuctionCarouselComponent</title>
<polygon fill="#ffffb3" stroke="black" points="1138.2,-122 961.8,-122 961.8,-86 1138.2,-86 1138.2,-122"/>
<text text-anchor="middle" x="1050" y="-99.8" font-family="Times,serif" font-size="14.00">AuctionCarouselComponent</text>
</g>
<!-- AuctionCarouselComponent&#45;&gt;AppModule -->
<g id="edge2" class="edge">
<title>AuctionCarouselComponent&#45;&gt;AppModule</title>
<path fill="none" stroke="black" d="M1050,-122.11C1050,-141.34 1050,-169 1050,-169 1050,-169 730.84,-169 730.84,-169"/>
<polygon fill="black" stroke="black" points="730.84,-165.5 720.84,-169 730.84,-172.5 730.84,-165.5"/>
</g>
<!-- AuctionFooterComponent -->
<g id="node3" class="node">
<title>AuctionFooterComponent</title>
<polygon fill="#ffffb3" stroke="black" points="943.48,-122 780.52,-122 780.52,-86 943.48,-86 943.48,-122"/>
<text text-anchor="middle" x="862" y="-99.8" font-family="Times,serif" font-size="14.00">AuctionFooterComponent</text>
</g>
<!-- AuctionFooterComponent&#45;&gt;AppModule -->
<g id="edge3" class="edge">
<title>AuctionFooterComponent&#45;&gt;AppModule</title>
<path fill="none" stroke="black" d="M862,-122.03C862,-138.4 862,-160 862,-160 862,-160 730.98,-160 730.98,-160"/>
<polygon fill="black" stroke="black" points="730.98,-156.5 720.98,-160 730.98,-163.5 730.98,-156.5"/>
</g>
<!-- AuctionNavbarComponent -->
<g id="node4" class="node">
<title>AuctionNavbarComponent</title>
<polygon fill="#ffffb3" stroke="black" points="762.63,-122 595.37,-122 595.37,-86 762.63,-86 762.63,-122"/>
<text text-anchor="middle" x="679" y="-99.8" font-family="Times,serif" font-size="14.00">AuctionNavbarComponent</text>
</g>
<!-- AuctionNavbarComponent&#45;&gt;AppModule -->
<g id="edge4" class="edge">
<title>AuctionNavbarComponent&#45;&gt;AppModule</title>
<path fill="none" stroke="black" d="M679,-122.11C679,-122.11 679,-140.99 679,-140.99"/>
<polygon fill="black" stroke="black" points="675.5,-140.99 679,-150.99 682.5,-140.99 675.5,-140.99"/>
</g>
<!-- AuctionProductCardListComponent -->
<g id="node5" class="node">
<title>AuctionProductCardListComponent</title>
<polygon fill="#ffffb3" stroke="black" points="577.47,-122 358.53,-122 358.53,-86 577.47,-86 577.47,-122"/>
<text text-anchor="middle" x="468" y="-99.8" font-family="Times,serif" font-size="14.00">AuctionProductCardListComponent</text>
</g>
<!-- AuctionProductCardListComponent&#45;&gt;AppModule -->
<g id="edge5" class="edge">
<title>AuctionProductCardListComponent&#45;&gt;AppModule</title>
<path fill="none" stroke="black" d="M468,-122.03C468,-138.4 468,-160 468,-160 468,-160 627.31,-160 627.31,-160"/>
<polygon fill="black" stroke="black" points="627.31,-163.5 637.31,-160 627.31,-156.5 627.31,-163.5"/>
</g>
<!-- AuctionSearchComponent -->
<g id="node6" class="node">
<title>AuctionSearchComponent</title>
<polygon fill="#ffffb3" stroke="black" points="340.02,-122 175.98,-122 175.98,-86 340.02,-86 340.02,-122"/>
<text text-anchor="middle" x="258" y="-99.8" font-family="Times,serif" font-size="14.00">AuctionSearchComponent</text>
</g>
<!-- AuctionSearchComponent&#45;&gt;AppModule -->
<g id="edge6" class="edge">
<title>AuctionSearchComponent&#45;&gt;AppModule</title>
<path fill="none" stroke="black" d="M258,-122.11C258,-141.34 258,-169 258,-169 258,-169 627.09,-169 627.09,-169"/>
<polygon fill="black" stroke="black" points="627.09,-172.5 637.09,-169 627.09,-165.5 627.09,-172.5"/>
</g>
<!-- AppComponent  -->
<g id="node9" class="node">
<title>AppComponent </title>
<polygon fill="#80b1d3" stroke="black" points="733.44,-252 624.56,-252 624.56,-216 733.44,-216 733.44,-252"/>
<text text-anchor="middle" x="679" y="-229.8" font-family="Times,serif" font-size="14.00">AppComponent </text>
</g>
<!-- AppModule&#45;&gt;AppComponent  -->
<g id="edge8" class="edge">
<title>AppModule&#45;&gt;AppComponent </title>
<path fill="none" stroke="black" stroke-dasharray="1,5" d="M679,-187.11C679,-187.11 679,-205.99 679,-205.99"/>
<polygon fill="black" stroke="black" points="675.5,-205.99 679,-215.99 682.5,-205.99 675.5,-205.99"/>
</g>
<!-- AppRoutingModule -->
<g id="node8" class="node">
<title>AppRoutingModule</title>
<polygon fill="#8dd3c7" stroke="black" points="152.27,-122 149.27,-126 128.27,-126 125.27,-122 23.73,-122 23.73,-86 152.27,-86 152.27,-122"/>
<text text-anchor="middle" x="88" y="-99.8" font-family="Times,serif" font-size="14.00">AppRoutingModule</text>
</g>
<!-- AppRoutingModule&#45;&gt;AppModule -->
<g id="edge7" class="edge">
<title>AppRoutingModule&#45;&gt;AppModule</title>
<path fill="none" stroke="black" d="M88,-122.29C88,-144.21 88,-178 88,-178 88,-178 626.97,-178 626.97,-178"/>
<polygon fill="black" stroke="black" points="626.97,-181.5 636.97,-178 626.97,-174.5 626.97,-181.5"/>
</g>
</g>
</svg>
